<svg xmlns="http://www.w3.org/2000/svg" version="1.1" xmlns:xlink="http://www.w3.org/1999/xlink" xmlns:svgjs="http://svgjs.com/svgjs" id="BgenPttrnSvgRootPreview" width="100%" height="100%"><defs><pattern x="0" y="0" width="1" height="1" patternUnits="userSpaceOnUse" id="BgenPttrnLayer1"><g id="PatternRootContent1"><g id="BgenPttrnLayer1background"><rect width="1" height="1" id="BgenPttrnBackground1" fill="#f1faff"></rect></g></g></pattern><pattern x="0" y="0" width="37" height="37" patternUnits="userSpaceOnUse" id="BgenPttrnLayer2" patternTransform="matrix(0.5,0,0,0.5,0,0)"><g id="PatternRootContent2"><g id="BgenPttrnLayer2Element1"><use xlink:href="#BgenPttrnElement1" x="-38.5" y="-38.5" transform="translate(-21, -21) scale(1) translate(21, 21) rotate(45, -18.5, -18.5)"></use><use xlink:href="#BgenPttrnElement1" x="-1.5" y="-38.5" transform="translate(16, -21) scale(1) translate(-16, 21) rotate(45, 18.5, -18.5)"></use><use xlink:href="#BgenPttrnElement1" x="-1.5" y="-1.5" transform="translate(16, 16) scale(1) translate(-16, -16) rotate(45, 18.5, 18.5)"></use><use xlink:href="#BgenPttrnElement1" x="-38.5" y="-1.5" transform="translate(-21, 16) scale(1) translate(21, -16) rotate(45, -18.5, 18.5)"></use><use xlink:href="#BgenPttrnElement1" x="35.5" y="-1.5" transform="translate(53, 16) scale(1) translate(-53, -16) rotate(45, 55.5, 18.5)"></use><use xlink:href="#BgenPttrnElement1" x="-1.5" y="35.5" transform="translate(16, 53) scale(1) translate(-16, -53) rotate(45, 18.5, 55.5)"></use><use xlink:href="#BgenPttrnElement1" x="-1.5" y="35.5" transform="translate(16, 53) scale(1) translate(-16, -53) rotate(45, 18.5, 55.5)"></use></g></g></pattern><symbol id="BgenPttrnElement1"><rect width="35" height="10" x="2.5" y="15" class="fill_color_0" fill="#92d2f7"></rect></symbol></defs><rect width="100%" height="100%" id="BgenPttrnRctLayer1" fill="url(#BgenPttrnLayer1)"></rect><rect width="100%" height="100%" id="BgenPttrnRctLayer2" fill="url(#BgenPttrnLayer2)"></rect></svg>